# File created by Blade
# Date/Time:  Wed Jan 21 17:47:40 2015
#---------------------------------------------------------
:version 1.10
:name HOM
:units
  mass 1.0
  length 1.000000
  angle deg
:documentation
     Acclaim Skeleton File
:root
   axis xyz
   order TX TY TZ RX RY RZ
   position 0.000000 0.000000 0.000000
   orientation 0 0 0
:bonedata
   begin
      id 1
      name Spine_dum
      direction 0.000000 1.000000 0.000000
      length 7.067664
      axis 0.0 0.0 0.0 xyz
   end
   begin
      id 2
      name LeftUpLeg_dum
      direction 1.000000 0.000000 0.000000
      length 4.013002
      axis 0.0 0.0 0.0 xyz
   end
   begin
      id 3
      name RightUpLeg_dum
      direction -1.000000 0.000000 0.000000
      length 4.013002
      axis 0.0 0.0 0.0 xyz
   end
   begin
      id 4
      name Spine
      direction 0.000000 1.000000 0.000000
      length 0.000000
      axis 0.0 0.0 0.0 xyz
      dof rx ry rz
   end
   begin
      id 5
      name Spine_dum1
      direction 0.000000 1.000000 0.000000
      length 15.039886
      axis 0.0 0.0 0.0 xyz
   end
   begin
      id 6
      name Spine_dum2
      direction 0.000000 1.000000 0.000000
      length 10.530368
      axis 0.0 0.0 0.0 xyz
   end
   begin
      id 7
      name Spine_dum3
      direction 0.000000 1.000000 0.000000
      length 10.530368
      axis 0.0 0.0 0.0 xyz
   end
   begin
      id 8
      name Head
      direction 0.000000 1.000000 0.000000
      length 4.527550
      axis 0.0 0.0 0.0 xyz
      dof rx ry rz
   end
   begin
      id 9
      name LeftShoulder
      direction 1.000000 0.000000 0.000000
      length 7.028855
      axis 0.0 0.0 -90.0 xyz
      dof rx ry rz
   end
   begin
      id 10
      name LeftArm
      direction 1.000000 0.000000 0.000000
      length 10.797705
      axis 0.0 0.0 -90.0 xyz
      dof rx ry rz
   end
   begin
      id 11
      name LeftForeArm
      direction 1.000000 0.000000 0.000000
      length 7.907442
      axis 0.0 0.0 -90.0 xyz
      dof ry rz rx
   end
   begin
      id 12
      name LeftHand
      direction 0.000000 0.000000 0.000000
      length 0.000000
      axis 0.0 0.0 -90.0 xyz
      dof rx ry rz
   end
   begin
      id 13
      name LeftHand_dum1
      direction 0.000000 0.000000 0.000000
      length 0.000000
      axis 0.0 0.0 -90.0 xyz
   end
   begin
      id 14
      name LeftHand_dum2
      direction 1.000000 0.000000 0.000000
      length 3.937000
      axis 0.0 0.0 -90.0 xyz
   end
   begin
      id 15
      name LeftHandThumb1
      direction 0.000000 0.000000 1.000000
      length 3.937000
      axis 0.0 0.0 -90.0 xyz
      dof rx rz ry
   end
   begin
      id 16
      name RightShoulder
      direction -1.000000 0.000000 0.000000
      length 7.028855
      axis 0.0 0.0 90.0 xyz
      dof rx ry rz
   end
   begin
      id 17
      name RightArm
      direction -1.000000 0.000000 0.000000
      length 10.797705
      axis 0.0 0.0 90.0 xyz
      dof rx ry rz
   end
   begin
      id 18
      name RightForeArm
      direction -1.000000 0.000000 0.000000
      length 7.907442
      axis 0.0 0.0 90.0 xyz
      dof ry rz rx
   end
   begin
      id 19
      name RightHand
      direction 0.000000 0.000000 0.000000
      length 0.000000
      axis 0.0 0.0 90.0 xyz
      dof rx ry rz
   end
   begin
      id 20
      name RightHand_dum1
      direction 0.000000 0.000000 0.000000
      length 0.000000
      axis 0.0 0.0 90.0 xyz
   end
   begin
      id 21
      name RightHand_dum2
      direction -1.000000 0.000000 0.000000
      length 3.937000
      axis 0.0 0.0 90.0 xyz
   end
   begin
      id 22
      name RightHandThumb1
      direction 0.000000 0.000000 1.000000
      length 3.937000
      axis 0.0 0.0 90.0 xyz
      dof rx rz ry
   end
   begin
      id 23
      name LeftUpLeg
      direction 0.000000 -1.000000 0.000000
      length 16.899758
      axis 0.0 0.0 0.0 xyz
      dof rx ry rz
   end
   begin
      id 24
      name LeftLeg
      direction 0.000000 -1.000000 0.000000
      length 17.389183
      axis 0.0 0.0 0.0 xyz
      dof rx ry rz
   end
   begin
      id 25
      name LeftFoot
      direction 0.000000 -0.258819 0.965926
      length 4.924528
      axis 15.0 0.0 0.0 xyz
      dof rx ry rz
   end
   begin
      id 26
      name LeftToeBase
      direction 0.000000 0.000000 1.000000
      length 2.952750
      axis 0.0 0.0 0.0 xyz
      dof rx ry rz
   end
   begin
      id 27
      name RightUpLeg
      direction 0.000000 -1.000000 0.000000
      length 16.899758
      axis 0.0 0.0 0.0 xyz
      dof rx ry rz
   end
   begin
      id 28
      name RightLeg
      direction 0.000000 -1.000000 0.000000
      length 17.389183
      axis 0.0 0.0 0.0 xyz
      dof rx ry rz
   end
   begin
      id 29
      name RightFoot
      direction 0.000000 -0.258819 0.965926
      length 4.924528
      axis 15.0 0.0 0.0 xyz
      dof rx ry rz
   end
   begin
      id 30
      name RightToeBase
      direction 0.000000 0.000000 1.000000
      length 2.952750
      axis 0.0 0.0 0.0 xyz
      dof rx ry rz
   end
:hierarchy
   begin
      root Spine_dum LeftUpLeg_dum RightUpLeg_dum
      Spine_dum Spine
      LeftUpLeg_dum LeftUpLeg
      RightUpLeg_dum RightUpLeg
      Spine Spine_dum1 Spine_dum2 Spine_dum3
      Spine_dum1 Head
      Spine_dum2 LeftShoulder
      Spine_dum3 RightShoulder
      LeftShoulder LeftArm
      LeftArm LeftForeArm
      LeftForeArm LeftHand
      LeftHand LeftHand_dum1 LeftHand_dum2
      LeftHand_dum1 LeftHandThumb1
      RightShoulder RightArm
      RightArm RightForeArm
      RightForeArm RightHand
      RightHand RightHand_dum1 RightHand_dum2
      RightHand_dum1 RightHandThumb1
      LeftUpLeg LeftLeg
      LeftLeg LeftFoot
      LeftFoot LeftToeBase
      RightUpLeg RightLeg
      RightLeg RightFoot
      RightFoot RightToeBase
   end

# File created by Blade
# Date/Time:  Wed Jan 21 17:47:32 2015
# Frame Rate: 120.000 fps
#------------------------------------------------------
:FULLY-SPECIFIED
:DEGREES
60
root 17.887056 35.439971 -22.258730 -171.364426 -1.509697 -179.249180
Spine -19.408605 -0.536833 -0.979323
Head 10.576524 -2.290904 1.608397
LeftShoulder -14.067020 -30.606191 20.101272
LeftArm 2.417789 0.973395 -2.965403
LeftForeArm 8.573363 -0.000000 -3.097330
LeftHand -8.259492 -0.000000 -4.750791
LeftHandThumb1 -26.253704 0.000000 33.147579
RightShoulder -12.234699 -5.296681 -8.853189
RightArm 9.905884 37.052370 8.843664
RightForeArm -36.825723 -0.000000 5.138468
RightHand -8.873260 -0.000000 8.292146
RightHandThumb1 -24.326973 -0.000000 -32.862282
LeftUpLeg 0.946056 8.216325 3.838682
LeftLeg -5.836511 -0.000000 0.000000
LeftFoot -19.071275 23.478891 -14.168076
LeftToeBase 24.639470 -0.000000 -0.000000
RightUpLeg -0.525525 -10.030044 -3.229713
RightLeg -3.694581 -0.000000 0.000000
RightFoot -19.730372 -20.940041 19.673894
RightToeBase 24.081049 -0.000000 -0.000000
61
root 17.884933 35.439720 -22.260647 -171.358083 -1.465351 -179.250476
Spine -19.417003 -0.491084 -1.010972
Head 10.770754 -2.370383 1.595851
LeftShoulder -14.052772 -30.582784 20.073732
LeftArm 2.379212 1.010542 -2.999816
LeftForeArm 8.794373 -0.000000 -2.982214
LeftHand -8.267417 -0.000000 -4.448656
LeftHandThumb1 -26.253704 0.000000 33.147579
RightShoulder -12.236016 -5.368555 -8.811396
RightArm 9.942976 37.072577 8.910854
RightForeArm -36.720459 -0.000000 5.158505
RightHand -8.856258 -0.000000 8.293227
RightHandThumb1 -24.326973 -0.000000 -32.862282
LeftUpLeg 0.944362 8.256351 3.824745
LeftLeg -5.822145 -0.000000 0.000000
LeftFoot -19.065039 23.497374 -14.143387
LeftToeBase 24.598264 -0.000000 -0.000000
RightUpLeg -0.532238 -9.954471 -3.241597
RightLeg -3.694234 -0.000000 0.000000
RightFoot -19.716117 -20.979141 19.752615
RightToeBase 23.861160 -0.000000 -0.000000
62
root 17.882287 35.439735 -22.262848 -171.375738 -1.412910 -179.259659
Spine -19.387882 -0.452008 -1.053225
Head 10.948602 -2.448903 1.597987
LeftShoulder -14.059446 -30.554222 20.012233
LeftArm 2.394532 1.060061 -2.987637
LeftForeArm 8.808084 -0.000000 -2.940006
LeftHand -8.159550 -0.000000 -4.165817
LeftHandThumb1 -26.253704 0.000000 33.147579
RightShoulder -12.214677 -5.405402 -8.753263
RightArm 9.943717 37.067100 8.949948
RightForeArm -36.810490 -0.000000 5.196187
RightHand -8.861875 -0.000000 8.307439
RightHandThumb1 -24.326973 -0.000000 -32.862282
LeftUpLeg 0.971858 8.297995 3.803835
LeftLeg -5.818708 -0.000000 0.000000
LeftFoot -19.071222 23.526485 -14.156016
LeftToeBase 24.588878 -0.000000 -0.000000
RightUpLeg -0.520363 -9.911541 -3.264384
RightLeg -3.695496 -0.000000 0.000000
RightFoot -19.730770 -20.952546 19.750936
RightToeBase 23.916734 -0.000000 -0.000000
63
root 17.879209 35.439636 -22.264888 -171.376507 -1.360942 -179.260444
Spine -19.390709 -0.409827 -1.080019
Head 11.136328 -2.621568 1.614903
LeftShoulder -14.051688 -30.511404 19.948976
LeftArm 2.388976 1.150071 -2.994369
LeftForeArm 8.792652 -0.000000 -2.902357
LeftHand -8.013443 -0.000000 -3.856655
LeftHandThumb1 -26.253704 0.000000 33.147579
RightShoulder -12.191902 -5.437202 -8.735374
RightArm 9.949197 37.014288 9.038340
RightForeArm -36.943239 -0.000000 5.225819
RightHand -8.895429 -0.000000 8.261757
RightHandThumb1 -24.326973 -0.000000 -32.862282
LeftUpLeg 0.978310 8.345035 3.786365
LeftLeg -5.807319 -0.000000 0.000000
LeftFoot -19.095055 23.558317 -14.146389
LeftToeBase 24.605871 -0.000000 -0.000000
RightUpLeg -0.526064 -9.843568 -3.281908
RightLeg -3.696456 -0.000000 0.000000
RightFoot -19.728448 -20.995439 19.677897
RightToeBase 24.201143 -0.000000 -0.000000
64
root 17.876370 35.439562 -22.266839 -171.394356 -1.304167 -179.265744
Spine -19.370351 -0.362388 -1.123628
Head 11.331673 -2.740993 1.643439
LeftShoulder -14.040817 -30.488296 19.889990
LeftArm 2.388901 1.231285 -2.997722
LeftForeArm 8.745281 0.000000 -2.887206
LeftHand -7.870281 0.000000 -3.705943
LeftHandThumb1 -26.253704 0.000000 33.147579
RightShoulder -12.158755 -5.490834 -8.680127
RightArm 9.947186 36.915335 9.080510
RightForeArm -36.752629 -0.000000 5.233430
RightHand -8.931639 -0.000000 8.155211
RightHandThumb1 -24.326973 -0.000000 -32.862282
LeftUpLeg 1.000271 8.404966 3.765963
LeftLeg -5.796456 -0.000000 0.000000
LeftFoot -19.131334 23.567993 -14.194980
LeftToeBase 24.602757 -0.000000 -0.000000
RightUpLeg -0.514884 -9.784146 -3.300820
RightLeg -3.694916 -0.000000 0.000000
RightFoot -19.735174 -20.974555 19.663785
RightToeBase 24.097615 -0.000000 -0.000000
65
root 17.872556 35.439403 -22.268287 -171.416730 -1.243291 -179.264602
Spine -19.341742 -0.314414 -1.157898
Head 11.551335 -2.909160 1.649115
LeftShoulder -14.038296 -30.486335 19.836687
LeftArm 2.376089 1.310084 -3.010974
LeftForeArm 8.582455 0.000000 -2.902747
LeftHand -7.886977 -0.000000 -3.498373
LeftHandThumb1 -26.253704 0.000000 33.147579
RightShoulder -12.112506 -5.514922 -8.622011
RightArm 9.912855 36.782537 9.091747
RightForeArm -36.783931 -0.000000 5.261334
RightHand -8.885627 -0.000000 8.137077
RightHandThumb1 -24.326973 -0.000000 -32.862282
LeftUpLeg 1.024905 8.445384 3.750311
LeftLeg -5.773377 -0.000000 0.000000
LeftFoot -19.133779 23.623905 -14.146468
LeftToeBase 24.536267 -0.000000 -0.000000
RightUpLeg -0.514178 -9.730795 -3.319686
RightLeg -3.663918 -0.000000 0.000000
RightFoot -19.718141 -20.979143 19.637490
RightToeBase 24.069878 -0.000000 -0.000000
66
root 17.869064 35.440341 -22.269179 -171.439786 -1.179762 -179.266759
Spine -19.311337 -0.260878 -1.203512
Head 11.793944 -3.093235 1.674792
LeftShoulder -14.028704 -30.484802 19.770089
LeftArm 2.376392 1.355154 -3.008911
LeftForeArm 8.230872 0.000000 -2.945465
LeftHand -7.845328 -0.000000 -3.475228
LeftHandThumb1 -26.253704 0.000000 33.147579
RightShoulder -12.066497 -5.509229 -8.540070
RightArm 9.865359 36.613161 9.053667
RightForeArm -36.670884 0.000000 5.250728
RightHand -8.817439 -0.000000 8.180122
RightHandThumb1 -24.326973 -0.000000 -32.862282
LeftUpLeg 1.052555 8.477549 3.733383
LeftLeg -5.760726 -0.000000 0.000000
LeftFoot -19.172767 23.659226 -14.190705
LeftToeBase 24.569547 -0.000000 -0.000000
RightUpLeg -0.512345 -9.639991 -3.340886
RightLeg -3.644159 -0.000000 0.000000
RightFoot -19.740324 -20.979171 19.666067
RightToeBase 24.092804 -0.000000 -0.000000
67
root 17.865150 35.440825 -22.269638 -171.461475 -1.098198 -179.263585
Spine -19.285246 -0.190059 -1.262235
Head 12.068464 -3.259042 1.753761
LeftShoulder -14.018524 -30.498804 19.755328
LeftArm 2.330122 1.337694 -3.067258
LeftForeArm 7.875419 -0.000000 -2.996386
LeftHand -7.692018 0.000000 -3.486737
LeftHandThumb1 -26.253704 0.000000 33.147579
RightShoulder -12.052989 -5.576537 -8.451027
RightArm 9.890819 36.556282 9.130193
RightForeArm -36.722968 -0.000000 5.266189
RightHand -8.613245 0.000000 8.089404
RightHandThumb1 -24.326973 -0.000000 -32.862282
LeftUpLeg 1.074955 8.523972 3.716488
LeftLeg -5.732572 -0.000000 0.000000
LeftFoot -19.199590 23.716306 -14.183046
LeftToeBase 24.523390 -0.000000 -0.000000
RightUpLeg -0.517081 -9.555406 -3.358756
RightLeg -3.618145 -0.000000 0.000000
RightFoot -19.736607 -20.974902 19.673882
RightToeBase 24.076400 -0.000000 -0.000000
68
root 17.861840 35.441689 -22.269481 -171.493600 -1.019277 -179.256767
Spine -19.242590 -0.125924 -1.303585
Head 12.322280 -3.451817 1.801611
LeftShoulder -14.021089 -30.495669 19.716590
LeftArm 2.298155 1.219183 -3.127521
LeftForeArm 7.518972 -0.000000 -3.049709
LeftHand -7.558084 -0.000000 -3.711221
LeftHandThumb1 -26.253704 0.000000 33.147579
RightShoulder -12.008475 -5.598523 -8.366640
RightArm 9.884303 36.415929 9.164820
RightForeArm -36.657059 -0.000000 5.253496
RightHand -8.842976 -0.000000 7.940126
RightHandThumb1 -24.326973 -0.000000 -32.862282
LeftUpLeg 1.108743 8.542621 3.707947
LeftLeg -5.712110 -0.000000 0.000000
LeftFoot -19.233496 23.788634 -14.199629
LeftToeBase 24.499581 -0.000000 -0.000000
RightUpLeg -0.511464 -9.454235 -3.374426
RightLeg -3.591059 -0.000000 0.000000
RightFoot -19.728766 -20.971603 19.771194
RightToeBase 23.902346 -0.000000 -0.000000
69
root 17.857025 35.442590 -22.269811 -171.524203 -0.939873 -179.260300
Spine -19.202852 -0.056940 -1.368202
Head 12.602939 -3.689930 1.861462
LeftShoulder -14.016355 -30.467643 19.654113
LeftArm 2.299594 1.128204 -3.190156
LeftForeArm 6.798064 0.000000 -3.131232
LeftHand -7.501130 -0.000000 -3.722382
LeftHandThumb1 -26.253704 0.000000 33.147579
RightShoulder -11.979125 -5.620976 -8.275563
RightArm 9.891259 36.325764 9.241877
RightForeArm -36.568885 -0.000000 5.222511
RightHand -8.792283 0.000000 7.660917
RightHandThumb1 -24.326973 -0.000000 -32.862282
LeftUpLeg 1.140628 8.563629 3.687203
LeftLeg -5.686403 -0.000000 0.000000
LeftFoot -19.271462 23.857678 -14.217977
LeftToeBase 24.515012 -0.000000 -0.000000
RightUpLeg -0.506439 -9.375989 -3.401333
RightLeg -3.564805 -0.000000 0.000000
RightFoot -19.692720 -21.001971 19.742376
RightToeBase 23.843432 -0.000000 -0.000000
